<?xml version="1.0" encoding="utf-8"?>
<!-- Generator: Adobe Illustrator 21.0.0, SVG Export Plug-In . SVG Version: 6.00 Build 0)  -->
<svg version="1.1" id="Layer_1" xmlns="http://www.w3.org/2000/svg" xmlns:xlink="http://www.w3.org/1999/xlink" x="0px" y="0px"
	 viewBox="0 0 216.7 102.6" style="enable-background:new 0 0 216.7 102.6;" xml:space="preserve">
<style type="text/css">
	.st0{fill:#1378C5;}
	.st1{fill:none;}
	.st2{display:none;fill:#1378C5;}
</style>
<g>
	<path class="st0" d="M9.3,28c0.1,1.3,0.2,2.7,0.3,4.2c0.1,1.6,0.1,2.9,0.1,3.9H10c0.6-1.3,1.5-2.6,2.6-3.7c1.1-1.1,2.3-2.2,3.7-3
		c1.4-0.9,2.9-1.5,4.6-2s3.4-0.7,5.2-0.7c3.2,0,5.9,0.5,8.2,1.6s4.2,2.5,5.7,4.3s2.7,3.9,3.4,6.4c0.7,2.4,1.1,5,1.1,7.8v30.7h-9.8
		V50c0-2-0.2-3.9-0.5-5.7s-0.9-3.4-1.7-4.8c-0.8-1.4-2-2.5-3.4-3.3c-1.5-0.8-3.3-1.3-5.6-1.3c-3.9,0-7.1,1.5-9.6,4.4
		c-2.5,3-3.7,6.9-3.7,11.8v26.3H0.4V38.6c0-1.3,0-3-0.1-5.1S0.1,29.6,0,28C0,28,9.3,28,9.3,28z"/>
	<path class="st0" d="M39.1,93.5c1.4,0.3,2.7,0.5,4,0.5c1.5,0,2.6-0.3,3.5-0.8c0.9-0.6,1.6-1.3,2.1-2.2c0.5-0.9,0.8-2.1,1-3.3
		c0.2-1.3,0.3-2.7,0.3-4.1V28h9.8v55.8c0,2.5-0.2,4.9-0.7,7.1s-1.3,4.2-2.5,5.9c-1.2,1.7-2.8,3.1-4.9,4.1c-2.1,1-4.8,1.5-8,1.5
		c-0.9,0-1.9-0.1-2.9-0.2s-1.9-0.3-2.7-0.4L39.1,93.5z M61.5,10.1c0,1.8-0.6,3.3-1.9,4.5s-2.8,1.8-4.6,1.8s-3.4-0.6-4.6-1.8
		c-1.3-1.2-1.9-2.7-1.9-4.4c0-1.8,0.6-3.3,1.9-4.5c1.3-1.2,2.8-1.8,4.6-1.8s3.4,0.6,4.6,1.8C60.8,6.8,61.5,8.3,61.5,10.1z"/>
	<path class="st0" d="M182.4,37.3c1.2-2.4,3.2-4.5,6.1-6.3c2.9-1.7,6.1-2.6,9.6-2.6c3.2,0,6,0.5,8.2,1.6c2.3,1.1,4.2,2.5,5.7,4.3
		s2.7,3.9,3.4,6.4c0.7,2.4,1.1,5,1.1,7.8v30.7h-9.8V51.8c0-2-0.2-3.9-0.5-5.8c-0.3-1.8-0.9-3.4-1.7-4.8c-0.8-1.4-2-2.5-3.4-3.3
		s-3.3-1.3-5.6-1.3c-3.9,0-7.1,1.5-9.6,4.4c-2.5,3-3.8,6.9-3.8,11.9v26.3h-9.8V0.3h9.8v37H182.4z"/>
	<g>
		<g>
			<path class="st1" d="M126.6,65.5c1.4,1.6,3.1,2.9,5.2,3.9c2.1,1,4.4,1.5,7.1,1.5s5-0.5,7.1-1.5c2.1-1,3.8-2.3,5.2-3.9
				c1.4-1.6,2.5-3.5,3.2-5.7c0.7-2.2,1.1-4.4,1.1-6.8c0-2.4-0.4-4.6-1.1-6.8c-0.7-2.2-1.8-4.1-3.2-5.7c-1.4-1.7-3.1-3-5.2-4
				c-2.1-1-4.4-1.5-7.1-1.5s-5,0.5-7.1,1.5c-2.1,1-3.8,2.3-5.2,4c-1.4,1.7-2.5,3.6-3.2,5.7c-0.7,2.2-1.1,4.5-1.1,6.8
				c0,2.4,0.4,4.6,1.1,6.8C124.1,61.9,125.2,63.8,126.6,65.5z"/>
			<path class="st2" d="M163.3,63.6c1.3-3.2,2-6.7,2-10.5c0-3.8-0.6-7.3-2-10.5c-1.2-2.8-2.8-5.3-4.8-7.4l0,35.8
				C160.5,68.8,162.1,66.4,163.3,63.6z"/>
			<path class="st0" d="M114.1,63.6c1.3,3.2,3.2,5.9,5.6,8.2c2.4,2.3,5.2,4.1,8.5,5.4c3.2,1.3,6.7,1.9,10.5,1.9
				c3.7,0,7.2-0.6,10.5-1.9c3.3-1.3,6.1-3.1,8.5-5.4c0.3-0.3,0.5-0.6,0.8-0.9l0-35.8c-0.3-0.3-0.5-0.6-0.8-0.9
				c-2.4-2.3-5.2-4.1-8.5-5.4c-3.2-1.3-6.7-1.9-10.5-1.9c-3.7,0-7.2,0.6-10.5,1.9c-3.3,1.3-6.1,3.1-8.5,5.4
				c-2.4,2.3-4.2,5.1-5.6,8.3c-1.3,3.2-2,6.7-2,10.5C112.1,56.9,112.8,60.4,114.1,63.6z M123.4,46.2c0.7-2.1,1.8-4,3.2-5.7
				c1.4-1.7,3.1-3,5.2-4c2.1-1,4.4-1.5,7.1-1.5s5,0.5,7.1,1.5c2.1,1,3.8,2.3,5.2,4c1.4,1.6,2.5,3.5,3.2,5.7c0.7,2.2,1.1,4.4,1.1,6.8
				c0,2.4-0.4,4.6-1.1,6.8c-0.7,2.2-1.8,4.1-3.2,5.7c-1.4,1.6-3.1,2.9-5.2,3.9c-2.1,1-4.4,1.5-7.1,1.5s-5-0.5-7.1-1.5
				c-2.1-1-3.8-2.3-5.2-3.9c-1.4-1.7-2.5-3.6-3.2-5.7c-0.7-2.2-1.1-4.4-1.1-6.8C122.3,50.7,122.7,48.4,123.4,46.2z"/>
		</g>
		<g>
			<path class="st1" d="M80.3,65.5c1.4,1.6,3.1,2.9,5.2,3.9c2.1,1,4.4,1.5,7.1,1.5c2.7,0,5-0.5,7.1-1.5c2.1-1,3.8-2.3,5.2-3.9
				c1.3-1.7,2.3-3.6,3.1-5.7c0.7-2.2,1.1-4.4,1.1-6.8c0-2.4-0.4-4.6-1.1-6.8c-0.7-2.2-1.8-4.1-3.2-5.7c-1.4-1.7-3.1-3-5.2-4
				c-2.1-1-4.4-1.5-7.1-1.5c-2.7,0-5,0.5-7.1,1.5c-2.1,1-3.8,2.3-5.2,4c-1.4,1.7-2.5,3.6-3.2,5.7c-0.7,2.2-1,4.5-1,6.8
				c0,2.4,0.4,4.6,1.1,6.8C77.8,61.9,78.9,63.8,80.3,65.5z"/>
			<path class="st0" d="M73.3,71.8c2.4,2.3,5.2,4.1,8.5,5.4c3.2,1.3,6.7,1.9,10.5,1.9c3.7,0,7.2-0.6,10.5-1.9
				c3.3-1.3,6.1-3.1,8.5-5.4c2.4-2.3,4.2-5,5.6-8.2c1.3-3.2,2-6.7,2-10.5c0-3.8-0.6-7.3-2-10.5c-1.4-3.2-3.2-6-5.6-8.3
				c-2.4-2.3-5.2-4.1-8.5-5.4c-3.2-1.3-6.7-1.9-10.5-1.9c-3.7,0-7.2,0.6-10.5,1.9c-3.3,1.3-6.1,3.1-8.5,5.4
				c-0.3,0.3-0.5,0.6-0.8,0.9l0,35.8C72.8,71.2,73,71.5,73.3,71.8z M77,46.2c0.7-2.1,1.8-4,3.2-5.7c1.4-1.7,3.1-3,5.2-4
				c2.1-1,4.4-1.5,7.1-1.5c2.7,0,5,0.5,7.1,1.5c2.1,1,3.8,2.3,5.2,4c1.4,1.6,2.5,3.5,3.2,5.7c0.7,2.2,1.1,4.4,1.1,6.8
				c0,2.4-0.4,4.6-1.1,6.8c-0.8,2.1-1.8,4-3.1,5.7c-1.4,1.6-3.1,2.9-5.2,3.9c-2.1,1-4.4,1.5-7.1,1.5c-2.7,0-5-0.5-7.1-1.5
				c-2.1-1-3.8-2.3-5.2-3.9c-1.4-1.7-2.5-3.6-3.2-5.7C76.4,57.6,76,55.4,76,53C76,50.7,76.3,48.4,77,46.2z"/>
			<path class="st2" d="M65.7,53.1c0,3.8,0.7,7.3,2,10.5c1.1,2.8,2.8,5.2,4.8,7.4l0-35.8c-2,2.1-3.7,4.6-4.8,7.4
				C66.4,45.8,65.7,49.3,65.7,53.1z"/>
		</g>
	</g>
</g>
</svg>
