<?xml version="1.0" encoding="utf-8"?>
<!-- Generator: Adobe Illustrator 21.0.0, SVG Export Plug-In . SVG Version: 6.00 Build 0)  -->
<svg version="1.1" id="Layer_1" xmlns="http://www.w3.org/2000/svg" xmlns:xlink="http://www.w3.org/1999/xlink" x="0px" y="0px"
	 viewBox="0 0 244 109.9" style="enable-background:new 0 0 244 109.9;" xml:space="preserve">
<style type="text/css">
	.st0{fill:#1378C5;}
</style>
<g>
	<path class="st0" d="M15.9,31.8c0.1,1.3,0.2,2.7,0.3,4.2c0.1,1.6,0.1,2.9,0.1,3.9h0.3c0.6-1.3,1.5-2.6,2.6-3.7
		c1.1-1.1,2.3-2.2,3.7-3c1.4-0.9,2.9-1.5,4.6-2c1.7-0.5,3.4-0.7,5.2-0.7c3.2,0,5.9,0.5,8.2,1.6c2.3,1.1,4.2,2.5,5.7,4.3
		c1.5,1.8,2.7,3.9,3.4,6.4c0.7,2.4,1.1,5,1.1,7.8v30.7h-9.8V53.8c0-2-0.2-3.9-0.5-5.7s-0.9-3.4-1.7-4.8c-0.8-1.4-2-2.5-3.4-3.3
		c-1.5-0.8-3.3-1.3-5.6-1.3c-3.9,0-7.1,1.5-9.6,4.4c-2.5,3-3.7,6.9-3.7,11.8v26.3H7V42.4c0-1.3,0-3-0.1-5.1
		c-0.1-2.1-0.2-3.9-0.3-5.5H15.9z"/>
	<path class="st0" d="M45.7,97.3c1.4,0.3,2.7,0.5,4,0.5c1.5,0,2.6-0.3,3.5-0.8c0.9-0.6,1.6-1.3,2.1-2.2c0.5-0.9,0.8-2.1,1-3.3
		c0.2-1.3,0.3-2.7,0.3-4.1V31.8h9.8v55.8c0,2.5-0.2,4.9-0.7,7.1c-0.5,2.2-1.3,4.2-2.5,5.9c-1.2,1.7-2.8,3.1-4.9,4.1
		c-2.1,1-4.8,1.5-8,1.5c-0.9,0-1.9-0.1-2.9-0.2s-1.9-0.3-2.7-0.4L45.7,97.3z M68.1,13.9c0,1.8-0.6,3.3-1.9,4.5
		c-1.3,1.2-2.8,1.8-4.6,1.8c-1.8,0-3.4-0.6-4.6-1.8c-1.3-1.2-1.9-2.7-1.9-4.4c0-1.8,0.6-3.3,1.9-4.5c1.3-1.2,2.8-1.8,4.6-1.8
		c1.8,0,3.4,0.6,4.6,1.8C67.4,10.6,68.1,12.1,68.1,13.9z"/>
	<path class="st0" d="M125.5,56.8c0,3.8-0.7,7.3-2,10.5s-3.2,6-5.6,8.3c-2.4,2.3-5.2,4.1-8.5,5.4c-3.3,1.3-6.8,1.9-10.5,1.9
		c-3.8,0-7.3-0.6-10.5-1.9c-3.3-1.3-6.1-3.1-8.5-5.4c-2.4-2.3-4.2-5.1-5.6-8.3c-1.4-3.2-2-6.7-2-10.5s0.7-7.3,2-10.5
		c1.4-3.2,3.2-5.9,5.6-8.2c2.4-2.3,5.2-4.1,8.5-5.4c3.3-1.3,6.8-1.9,10.5-1.9c3.8,0,7.3,0.6,10.5,1.9c3.3,1.3,6.1,3.1,8.5,5.4
		c2.4,2.3,4.3,5,5.6,8.2C124.8,49.5,125.5,53,125.5,56.8z M115.2,56.9c0-2.4-0.4-4.6-1.1-6.8c-0.7-2.1-1.8-4-3.2-5.7
		c-1.4-1.6-3.1-2.9-5.2-3.9c-2.1-1-4.4-1.5-7.1-1.5s-5,0.5-7.1,1.5c-2.1,1-3.8,2.3-5.2,3.9C85,46.1,84,48,83.2,50.1
		c-0.7,2.2-1.1,4.4-1.1,6.8c0,2.4,0.4,4.6,1.1,6.8s1.8,4.1,3.2,5.7c1.4,1.7,3.1,3,5.2,4c2.1,1,4.4,1.5,7.1,1.5s5-0.5,7.1-1.5
		c2.1-1,3.8-2.3,5.2-4c1.4-1.7,2.5-3.6,3.2-5.7C114.9,61.5,115.2,59.2,115.2,56.9z"/>
	<path class="st0" d="M171.9,56.8c0,3.8-0.7,7.3-2,10.5c-1.4,3.2-3.2,6-5.6,8.3c-2.4,2.3-5.2,4.1-8.5,5.4c-3.3,1.3-6.8,1.9-10.5,1.9
		c-3.8,0-7.3-0.6-10.5-1.9c-3.3-1.3-6.1-3.1-8.5-5.4c-2.4-2.3-4.2-5.1-5.6-8.3c-1.4-3.2-2-6.7-2-10.5s0.7-7.3,2-10.5
		c1.4-3.2,3.2-5.9,5.6-8.2c2.4-2.3,5.2-4.1,8.5-5.4c3.3-1.3,6.8-1.9,10.5-1.9c3.8,0,7.3,0.6,10.5,1.9c3.3,1.3,6.1,3.1,8.5,5.4
		c2.4,2.3,4.3,5,5.6,8.2C171.2,49.5,171.9,53,171.9,56.8z M161.7,56.9c0-2.4-0.4-4.6-1.1-6.8c-0.7-2.1-1.8-4-3.2-5.7
		c-1.4-1.6-3.1-2.9-5.2-3.9c-2.1-1-4.4-1.5-7.1-1.5s-5,0.5-7.1,1.5c-2.1,1-3.8,2.3-5.2,3.9c-1.4,1.6-2.5,3.5-3.2,5.7
		c-0.7,2.2-1.1,4.4-1.1,6.8c0,2.4,0.4,4.6,1.1,6.8s1.8,4.1,3.2,5.7c1.4,1.7,3.1,3,5.2,4c2.1,1,4.4,1.5,7.1,1.5s5-0.5,7.1-1.5
		c2.1-1,3.8-2.3,5.2-4c1.4-1.7,2.5-3.6,3.2-5.7C161.3,61.5,161.7,59.2,161.7,56.9z"/>
	<path class="st0" d="M189,41.1c1.2-2.4,3.2-4.5,6.1-6.3c2.9-1.7,6.1-2.6,9.6-2.6c3.2,0,6,0.5,8.2,1.6c2.3,1.1,4.2,2.5,5.7,4.3
		c1.5,1.8,2.7,3.9,3.4,6.4c0.7,2.4,1.1,5,1.1,7.8V83h-9.8V55.6c0-2-0.2-3.9-0.5-5.8c-0.3-1.8-0.9-3.4-1.7-4.8
		c-0.8-1.4-2-2.5-3.4-3.3c-1.4-0.8-3.3-1.3-5.6-1.3c-3.9,0-7.1,1.5-9.6,4.4c-2.5,3-3.8,6.9-3.8,11.9V83h-9.8V4.1h9.8v37H189z"/>
</g>
</svg>
