<?xml version="1.0" encoding="utf-8"?>
<!-- Generator: Adobe Illustrator 21.0.0, SVG Export Plug-In . SVG Version: 6.00 Build 0)  -->
<svg version="1.1" id="Layer_1" xmlns="http://www.w3.org/2000/svg" xmlns:xlink="http://www.w3.org/1999/xlink" x="0px" y="0px"
	 viewBox="0 0 512 512" style="enable-background:new 0 0 512 512;" xml:space="preserve">
<style type="text/css">
	.st0{fill:#A2A9AF;}
	.st1{fill:#FFFFFF;}
	.st2{fill:#4C5870;}
	.st3{fill:#EE3840;}
	.st4{fill:#C21B23;}
</style>
<path class="st0" d="M452.1,2.2l0,102.9L394.6,145L337,105.1l0-102.9c-35.7,20.2-59.8,58.4-59.8,102.4c0,17.7,4.2,34.3,11.2,49.3
	l-274.9,275c-17.8,17.8-17.8,46.7,0,64.5c17.8,17.8,46.7,17.8,64.5,0L356.1,215c0,0,24.9,6.9,38.4,6.9
	C459.4,222,512,169.4,512,104.5C512,60.6,487.8,22.4,452.1,2.2z"/>
<circle class="st1" cx="45.4" cy="461.2" r="12.1"/>
<polygon class="st2" points="396.2,379.8 242.9,226.5 220.8,248.6 374.1,401.9 387.6,439.3 458.1,509.8 504,463.9 433.5,393.4 "/>
<path class="st3" d="M214.4,289.3L16.3,91.3C-2.8,72.2-2.8,41.2,16.3,22C35.4,3,66.4,2.9,85.5,22.1l198.1,198L214.4,289.3z"/>
<g>
	<path class="st4" d="M226.8,232.5c-4.7,4.7-12.4,4.7-17.2,0L42.3,65.2c-4.7-4.7-4.7-12.4,0-17.2s12.4-4.7,17.2,0l167.4,167.4
		C231.5,220.1,231.5,227.8,226.8,232.5z"/>
	<path class="st4" d="M297.5,223.4l-79.9,79.9c-4.7,4.7-12.4,4.7-17.2,0s-4.7-12.4,0-17.2l79.9-79.9c4.7-4.7,12.4-4.7,17.2,0
		C302.2,210.9,302.2,218.6,297.5,223.4z"/>
</g>
</svg>
