<?xml version="1.0" encoding="utf-8"?>
<!-- Generator: Adobe Illustrator 21.0.0, SVG Export Plug-In . SVG Version: 6.00 Build 0)  -->
<svg version="1.1" id="Capa_1" xmlns="http://www.w3.org/2000/svg" xmlns:xlink="http://www.w3.org/1999/xlink" x="0px" y="0px"
	 viewBox="0 0 490 490" style="enable-background:new 0 0 490 490;" xml:space="preserve">
<style type="text/css">
	.st0{fill:#1378C5;}
</style>
<g>
	<path class="st0" d="M96.7,148.8c-2.8-5.3-6.9-9.8-11.7-13.3c-5.7-4.2-12.5-7.1-20-7.8c-0.1,0-0.1,0-0.2,0c-1.9-0.2-3.7-0.1-5.6,0
		c10.9,3,20.4,10.4,25.7,21.4l15.4,32.5l10.4,21.8l31.9-3l7-11.3l-14.7,3.8L96.7,148.8z"/>
	<path class="st0" d="M222.6,175.6l-25-15.4c-1.5-0.9-3.3-1.4-5-1.4c-0.7,0-1.5,0.1-2.2,0.3c-2.5,0.6-4.6,2.1-5.9,4.3l-22.9,37.2
		c16.7,3.7,29.9,17.6,31.6,35.6c0.2,1.9,0.1,3.8,0,5.7l32.7-53C228.5,184.3,227.1,178.4,222.6,175.6z"/>
	<path class="st0" d="M78.3,316.5c6.4-6.4,10.7-14.9,11.7-24.6l0.5-5.4h-0.3c-1.3,0.1-2.6,0.2-3.8,0.2c-15.5,0-29.8-8.9-36.5-23.1
		l-32.1-67.5l-8.3,88.2c-0.9,9.9,1.9,19.2,7.2,26.8L42.9,388l-9.5,69.9c-2.1,15.5,8.7,29.8,24.2,31.9c1.3,0.2,2.6,0.3,3.9,0.3
		c13.9,0,26.1-10.3,28-24.5L99.9,389c0.6-4.4,0.2-8.8-1.3-13L78.3,316.5z"/>
	<path class="st0" d="M99,117.4c26.8-7,42.8-34.3,35.8-61.1s-34.3-42.8-61.1-35.8C47,27.5,31,54.9,37.9,81.6
		C44.9,108.4,72.3,124.4,99,117.4z"/>
	<path class="st0" d="M150.5,215.8l-49.5,4.7L70.3,156C64.5,143.9,50,138.7,38,144.5c-12.1,5.8-17.3,20.2-11.5,32.3l38,79.8
		c4,8.5,12.6,13.9,21.9,13.9c0.8,0,1.5,0,2.3-0.1l66.4-6.3c13.3-1.3,23.1-13.1,21.9-26.5C175.7,224.3,163.8,214.4,150.5,215.8z"/>
	<path class="st0" d="M480.6,284.2L469.3,164c-2.1-22.3-22-38.8-44.1-36.5c-15.6,1.5-28.1,11.7-33.6,25.2l3.6-3.2
		c16.5-15.1,42.1-13.9,57.2,2.6s13.9,42.1-2.6,57.2l-52.9,48.3l3.2,34.2c0.9,9.7,5.3,18.2,11.7,24.6L391.4,376
		c-1.4,4.2-1.9,8.6-1.3,13l10.4,76.6c1.9,14.2,14.1,24.5,28,24.5c1.3,0,2.6-0.1,3.9-0.3c15.5-2.1,26.4-16.4,24.2-31.9l-9.5-69.9
		l26.3-76.9C478.7,303.5,481.6,294.2,480.6,284.2z"/>
	<path class="st0" d="M391,117.4c26.8,7,54.1-9.1,61.1-35.8c7-26.8-9.1-54.1-35.8-61.1c-26.8-7-54.1,9.1-61.1,35.8
		C348.2,83.1,364.3,110.5,391,117.4z"/>
	<path class="st0" d="M440.4,163.1c-9-9.9-24.4-10.6-34.3-1.5l-51.8,47.3h-65.6c-13.4,0-24.3,10.9-24.3,24.3s10.9,24.3,24.3,24.3h75
		c6.1,0,11.9-2.3,16.4-6.4l58.8-53.7C448.7,188.3,449.4,173,440.4,163.1z"/>
	<path class="st0" d="M283.5,89.4c0-15.2-8.1-24.5-28.2-31.6c-14.4-5.4-20.3-9-20.3-14.5c0-4.7,3.5-9.5,14.6-9.5
		c6.1,0,11.2,1,15.2,2.2c2.4,0.7,5.1,0.4,7.3-0.8c2.2-1.2,3.8-3.4,4.5-5.8l0.2-0.6c1.3-5.1-1.7-10.3-6.8-11.6
		c-4.2-1.1-9.3-2-15.6-2.3V8.3c0-4.6-3.7-8.3-8.3-8.3s-8.3,3.7-8.3,8.3v7.8c-18.1,3.5-28.6,15.2-28.6,30.1
		c0,16.4,12.3,24.9,30.4,30.9c12.5,4.2,17.9,8.3,17.9,14.7c0,6.8-6.6,10.5-16.2,10.5c-6.8,0-13.3-1.4-18.9-3.4
		c-2.4-0.9-5.1-0.6-7.3,0.6c-2.3,1.2-3.9,3.3-4.5,5.8l-0.2,0.6c-1.4,5.4,1.7,11,7.1,12.7c5.7,1.8,12.5,3,19.4,3.3v7.8
		c0,4.6,3.7,8.3,8.3,8.3s8.3-3.7,8.3-8.3v-9C272.8,117.3,283.5,104.5,283.5,89.4z"/>
</g>
</svg>
