<?xml version="1.0" encoding="utf-8"?>
<!-- Generator: Adobe Illustrator 21.0.0, SVG Export Plug-In . SVG Version: 6.00 Build 0)  -->
<svg version="1.1" id="Capa_1" xmlns="http://www.w3.org/2000/svg" xmlns:xlink="http://www.w3.org/1999/xlink" x="0px" y="0px"
	 viewBox="0 0 425.2 425.2" style="enable-background:new 0 0 425.2 425.2;" xml:space="preserve">
<style type="text/css">
	.st0{fill:#2185D0;}
</style>
<g>
	<path class="st0" d="M156.7,173.3c-1.3,0.1-5.6,3.8-5.6,3.8C153.4,178.1,158,173.2,156.7,173.3z M157.2,172.5l-0.3,0.2
		C157,172.7,157.1,172.6,157.2,172.5C157.2,172.6,157.2,172.5,157.2,172.5z M316.5,7c23.9,0,43.2,19.3,43.2,43.2
		s-19.3,43.2-43.2,43.2c-23.9,0-43.2-19.3-43.2-43.2S292.7,7,316.5,7z M57.2,192.2h11.6v-5.6H57.2c-3.2,0-5.4-0.6-6.3-1.7
		c-0.6-0.8-0.4-1.9-0.4-1.9l0.1-33.6H45v32.4c-0.2,1.1-0.6,3.8,1.3,6.3C48.3,190.9,52,192.2,57.2,192.2z M423.1,271.2l-1.6-12.7
		c-6.2-49.8-6.5-51.7-4.1-139.4c0.1-3.1-2.3-5.6-5.4-5.7c-2.9-0.2-5.6,2.3-5.7,5.4c-2.4,88.5-2.2,90.5,4.1,141l1.6,12.8
		c1.6,12.2,0.2,20.7-4,24c-4.8,3.7-13.3,0.4-13.9,0.2c-40.9-12.6-91.9,13.4-94.1,14.5c-2.7,1.4-3.8,4.8-2.4,7.5c1,1.9,2.9,3,4.9,3
		c0.9,0,1.7-0.2,2.6-0.6c0.3-0.2,23.1-11.7,48.9-15.6v86.6h-23.1c-4.7,0-8.5,3.8-8.5,8.5s3.8,8.5,8.5,8.5h65.7
		c4.7,0,8.5-3.8,8.5-8.5s-3.8-8.5-8.5-8.5h-21.3v-87.6c5.1,0.3,10.2,1.1,15,2.6c0.6,0.2,14.4,5.9,24.4-1.8
		C422.6,299.5,425.4,288,423.1,271.2z M396.7,245.9c-1-36.6-13-71.7-13.9-108.1c-1.4-53.1-82.7-54.3-83.4-2.5
		c-31.1,5.3-62.2,8.1-93.9,6.6c-28.7-1.3-28.8,43.2-0.3,44.5c33.2,1.6,66.2-1.6,99-7c3.4,19.5,7.3,38.9,8.6,58.6
		c-67.7,23.7-105.3,81-114.9,153.8c-0.1,0.5-0.1,1-0.1,1.6V232.1h42.7V194H87.3c0.1-0.5,0.1-1,0.2-1.7c0-0.4,0-0.9,0.1-1.4
		c0.2-3.2,0.8-4.3,3.9-4.9c0.8-0.1,1.8-0.2,2.8-0.2v2.7h41.1c1.2,0.2,2.4,0.4,3.5,0.4c1.7,0,3.2-0.4,4.1-1.6
		c0.5-0.6,0.5-1.5,0.5-2.3s0-1.6,0.4-2.1c0.6-0.7,1.7-1.2,2.6-1.3c-0.9,1.7-1.4,3.4-1.4,5.3h46.6c0-9-10.4-16.2-23.3-16.2
		c-4,0-7.7,0.8-11,2c0.8,7.7-6.5,6.9-9.2,6.4c-0.3,0.4-0.6,0.8-0.9,1.3c-0.1,0-0.2-0.1-0.4-0.1c-1.2-0.1-3,0.7-4,1.8
		c-0.7,0.9-0.7,2-0.7,3c0,0.6,0,1.2-0.2,1.5c-0.5,0.7-1.5,0.9-2.6,0.9v-6.4H94.3v3.4c-1.2,0-2.3,0.1-3.1,0.2c-4,0.8-4.8,2.6-5,6.2
		c0,0.5,0,1-0.1,1.4c0,0.8-0.1,1.4-0.2,1.8H1.3v38.1h23.3v185h173.2v-18.5c2.8,28.5,51.5,25.9,55.7-6.7c7.4-56.4,40.3-94,95.6-106.5
		C372.1,288.8,397.4,275.8,396.7,245.9z M64.2,68.4l7,99.8l-18.5,1.3l-7-99.8L64.2,68.4z"/>
</g>
</svg>
